<svg width="258" height="164" viewBox="0 0 258 164" fill="none" xmlns="http://www.w3.org/2000/svg">
<path d="M29.2415 0.859558C30.2773 0.853848 31.3131 0.848138 32.3802 0.842255C33.506 0.841137 34.6318 0.840019 35.7917 0.838867C36.9859 0.833902 38.18 0.828937 39.4103 0.823822C42.6791 0.811737 45.948 0.804261 49.2169 0.799811C51.2631 0.796873 53.3093 0.792767 55.3556 0.788307C61.7692 0.774642 68.1828 0.764971 74.5965 0.761105C81.9786 0.75663 89.3605 0.739104 96.7425 0.710105C102.462 0.688422 108.182 0.678397 113.902 0.677064C117.312 0.676021 120.722 0.67021 124.131 0.652245C127.941 0.635126 131.751 0.637079 135.561 0.643555C137.235 0.629733 137.235 0.629733 138.942 0.615631C148.755 0.667683 157.054 2.11407 164.309 9.03125C168.758 14.2102 171.149 20.2839 171.098 27.1094C171.094 27.8635 171.091 28.6176 171.088 29.3945C171.08 30.1718 171.071 30.9491 171.062 31.75C171.058 32.5428 171.053 33.3355 171.049 34.1523C171.037 36.1016 171.019 38.0508 171 40C170.087 40.0055 170.087 40.0055 169.156 40.011C162.796 40.053 156.437 40.1224 150.077 40.2075C147.707 40.2357 145.336 40.2569 142.966 40.271C139.55 40.2925 136.135 40.3392 132.719 40.3906C131.666 40.3919 130.614 40.3931 129.53 40.3943C122.328 40.5363 116.506 41.5385 111.16 46.8164C110.798 47.3926 110.436 47.9688 110.062 48.5625C109.682 49.1413 109.302 49.7201 108.91 50.3164C107.036 53.7827 106.854 56.7091 106.795 60.573C106.775 61.714 106.755 62.8549 106.734 64.0304C106.718 65.2618 106.701 66.4931 106.684 67.7617C106.652 69.6531 106.652 69.6531 106.621 71.5827C106.566 74.9315 106.516 78.2802 106.468 81.629C106.417 85.0477 106.362 88.4662 106.307 91.8848C106.199 98.5898 106.1 105.295 106 112C96.76 112 87.52 112 78 112C77.01 113.98 77.01 113.98 76 116C75.1314 117.126 74.2213 118.221 73.2773 119.285C72.4757 120.197 72.4757 120.197 71.658 121.128C70.8063 122.085 70.8063 122.085 69.9375 123.062C65.1326 128.527 60.4494 134.049 55.9023 139.73C52.052 144.324 52.052 144.324 50 146C48.68 145.67 47.36 145.34 46 145C46 134.11 46 123.22 46 112C37.8032 112.157 37.8032 112.157 29.6074 112.36C21.2677 112.441 16.0017 111.312 9.57422 105.992C8.64029 104.944 8.64029 104.944 7.6875 103.875C7.05199 103.192 6.41648 102.509 5.76172 101.805C0.453868 93.3545 0.556858 84.0698 0.601562 74.375C0.599536 72.9784 0.596619 71.5817 0.592865 70.1851C0.58847 67.2737 0.59478 64.3625 0.608887 61.4512C0.625977 57.7462 0.616121 54.0418 0.598169 50.3369C0.587254 47.4576 0.590813 44.5784 0.598553 41.699C0.601486 39.6774 0.592482 37.6558 0.58316 35.6343C0.659202 25.5965 1.69724 16.7581 8.19141 8.75781C14.1627 2.95422 21.0767 0.88664 29.2415 0.859558Z" fill="#5C61F6"/>
<path d="M133.566 48.8528C134.528 48.8457 135.489 48.8385 136.48 48.8311C137.539 48.8285 138.598 48.8258 139.688 48.823C140.801 48.8164 141.913 48.8099 143.059 48.8031C146.753 48.7833 150.447 48.7717 154.141 48.7617C155.4 48.7576 156.659 48.7536 157.957 48.7494C163.935 48.7306 169.913 48.7161 175.891 48.7078C182.788 48.698 189.684 48.6717 196.58 48.6313C202.556 48.5974 208.532 48.5856 214.508 48.5816C217.048 48.5767 219.589 48.565 222.129 48.5465C225.684 48.5222 229.239 48.5231 232.794 48.53C233.845 48.5172 234.895 48.5044 235.978 48.4912C241.847 48.5331 245.39 48.9888 250 53C255.24 58.4786 257.232 63.2986 257.291 70.8467C257.303 71.9752 257.316 73.1036 257.329 74.2663C257.331 75.4726 257.334 76.679 257.336 77.9219C257.346 79.8046 257.346 79.8046 257.356 81.7254C257.366 84.3783 257.372 87.0307 257.371 89.6836C257.37 93.057 257.398 96.4296 257.432 99.8028C257.46 103.051 257.459 106.299 257.461 109.547C257.475 110.745 257.49 111.943 257.504 113.178C257.463 120.885 256.762 128.501 251.623 134.647C246.194 139.55 240.23 140.3 233.195 140.195C232.471 140.192 231.747 140.19 231.001 140.187C228.709 140.176 226.417 140.151 224.125 140.125C222.562 140.115 221 140.106 219.437 140.098C215.625 140.077 211.813 140.038 208 140C208 147.59 208 155.18 208 163C206.68 163.33 205.36 163.66 204 164C198.409 157.907 193.035 151.691 187.848 145.25C185.435 141.988 185.435 141.988 181.832 140.742C180.934 140.737 180.036 140.733 179.111 140.729C178.092 140.719 177.074 140.708 176.025 140.698C174.92 140.696 173.814 140.694 172.676 140.691C170.344 140.666 168.013 140.641 165.682 140.615C161.999 140.587 158.317 140.563 154.635 140.544C151.086 140.522 147.537 140.483 143.988 140.441C142.346 140.441 142.346 140.441 140.67 140.441C133.274 140.346 128.713 139.159 122.312 135.438C115.509 128.266 115.416 118.987 115.504 109.617C115.502 108.363 115.501 107.109 115.499 105.816C115.502 102.508 115.522 99.201 115.55 95.8931C115.566 93.2038 115.557 90.515 115.546 87.8257C115.538 84.5895 115.553 81.3534 115.566 78.1172C115.563 76.9212 115.561 75.7252 115.558 74.4929C115.641 67.1031 115.922 60.5531 120.973 54.7227C121.662 54.1748 122.352 53.627 123.062 53.0625C123.755 52.4966 124.447 51.9307 125.16 51.3477C128.144 49.1619 129.914 48.8714 133.566 48.8528Z" fill="#5C61F6"/>
</svg>
