<svg width="218" height="218" viewBox="0 0 218 218" fill="none" xmlns="http://www.w3.org/2000/svg">
<path d="M109.75 0.687493C111.456 0.695952 111.456 0.695952 113.197 0.704582C142.031 1.11843 167.575 13.2242 188.313 32.9375C208.086 53.7627 217.179 77.9263 217.35 106.242C217.367 108.226 217.394 110.21 217.432 112.193C217.746 128.467 215.996 142.839 208.125 157.375C207.781 158.031 207.437 158.687 207.083 159.363C206.077 161.255 205.045 163.129 204 165C203.456 165.986 202.912 166.972 202.352 167.988C189.146 190.245 166.514 206.51 142 214C141.188 214.269 140.375 214.537 139.538 214.814C130.678 217.429 121.987 217.491 112.829 217.446C110.202 217.438 107.578 217.466 104.951 217.498C94.2952 217.542 85.1293 216.392 75 213C74.2386 212.759 73.4771 212.518 72.6926 212.27C56.4255 206.879 42.9078 197.118 31 185C30.2524 184.251 29.5047 183.502 28.7344 182.73C9.52841 162.352 0.263686 133.659 0.753917 106.004C2.26924 75.8557 14.5717 49.2333 36.293 28.3672C56.9834 10.2742 82.2191 0.543309 109.75 0.687493ZM63 61C56.2271 68.3457 54.2453 75.1273 54.5625 85.082C56.0622 98.5122 67.0255 110.116 75.8555 119.668C77.7568 121.735 79.5693 123.85 81.375 126C93.9059 140.272 117.826 162.159 137.5 164.398C148.074 164.328 153.322 162.823 161.301 155.816C163.799 153.146 164.834 150.813 165.563 147.25C164.064 138.593 154.526 132.988 147.891 128.004C144.075 125.359 142.813 124.853 138.188 125.687C135.061 126.5 133.732 127.206 131.063 129.25C127.838 131.093 127.272 131.27 123.813 130.688C110.477 126.769 98.3405 115.045 91.25 103.312C90.4759 101.888 89.7192 100.453 89 99C88.67 98.34 88.34 97.68 88 97C87.5979 92.818 87.5171 90.7009 89.9375 87.1875C92.7384 82.8589 93.4489 79.14 93 74C91.4352 70.5593 89.2505 67.8679 86.8125 65C86.2215 64.251 85.6304 63.5021 85.0215 62.7305C81.2223 57.9626 81.2223 57.9626 76 55C70.3534 55 67.2862 57.4863 63 61Z" fill="#5B60F5"/>
</svg>
