<svg width="218" height="143" viewBox="0 0 218 143" fill="none" xmlns="http://www.w3.org/2000/svg">
<path d="M84 65C91.3892 69.1924 98.3695 73.5428 105.211 78.5938C107.884 80.18 107.884 80.18 110.715 80.125C115.734 78.4062 119.825 75.4758 124.188 72.5C125.971 71.2993 127.756 70.1012 129.543 68.9062C130.327 68.3732 131.111 67.8402 131.919 67.291C134 66 134 66 137 65C137.986 66.0944 137.986 66.0944 138.992 67.2109C145.97 74.8894 153.195 82.2783 160.591 89.5542C164.002 92.9255 167.324 96.3099 170.449 99.9492C174.55 104.718 179.02 109.091 183.5 113.5C191.118 120.998 198.201 128.759 205 137C199.174 140.662 194.949 142.249 188.005 142.267C187.313 142.272 186.621 142.276 185.908 142.281C183.595 142.294 181.283 142.292 178.97 142.291C177.309 142.297 175.648 142.303 173.987 142.311C169.478 142.329 164.97 142.333 160.461 142.335C157.643 142.336 154.824 142.34 152.005 142.346C142.165 142.364 132.325 142.372 122.485 142.371C113.323 142.369 104.162 142.39 95 142.422C87.1263 142.448 79.2527 142.459 71.379 142.458C66.68 142.457 61.9811 142.463 57.2821 142.484C52.8595 142.503 48.4373 142.504 44.0147 142.489C42.3963 142.487 40.7778 142.492 39.1594 142.504C30.5859 142.564 23.614 142.327 16 138C17.3508 133.953 19.0549 131.596 22.1055 128.637C22.9247 127.832 23.7439 127.027 24.5879 126.197C25.8747 124.955 25.8747 124.955 27.1875 123.688C32.3933 118.618 37.4656 113.555 42.1926 108.034C46.536 103.145 51.3138 98.6516 55.9727 94.0664C60.2643 89.8161 64.3734 85.5025 68.3071 80.9199C71.2039 77.6346 74.3202 74.5744 77.4375 71.5C78.0737 70.8684 78.7098 70.2367 79.3652 69.5859C80.9078 68.0549 82.4536 66.5271 84 65Z" fill="#5C61F5"/>
<path d="M34.6331 0.852842C35.6311 0.847327 35.6311 0.847327 36.6493 0.841701C38.8776 0.830693 41.1059 0.826825 43.3342 0.823011C44.9327 0.816744 46.5312 0.810097 48.1297 0.803098C53.3794 0.782078 58.6291 0.771696 63.8789 0.761732C65.6889 0.757683 67.499 0.753566 69.309 0.749382C77.8162 0.730332 86.3234 0.716102 94.8307 0.70777C104.635 0.698007 114.439 0.671711 124.244 0.631269C131.831 0.601051 139.419 0.586295 147.006 0.582989C151.533 0.580644 156.06 0.571762 160.587 0.546528C164.851 0.523143 169.115 0.519055 173.379 0.529289C174.937 0.529782 176.495 0.523532 178.053 0.509733C188.889 0.419191 197.33 2.0684 207 7.00001C207 7.99001 207 8.98001 207 10C204.842 11.5658 202.732 12.9095 200.438 14.25C198.961 15.1421 197.486 16.0368 196.012 16.9336C194.804 17.6662 194.804 17.6662 193.572 18.4136C188.907 21.2911 184.333 24.3072 179.75 27.3125C177.77 28.6081 175.789 29.9037 173.809 31.1992C172.835 31.8365 171.862 32.4738 170.859 33.1304C166.516 35.9707 162.165 38.7984 157.812 41.625C156.177 42.6875 154.542 43.75 152.906 44.8125C151.698 45.5976 151.698 45.5976 150.465 46.3984C147.093 48.5896 143.721 50.7821 140.351 52.9758C138.676 54.0641 136.999 55.1499 135.321 56.2332C131.223 58.8815 127.159 61.5641 123.141 64.332C122.369 64.8552 121.597 65.3784 120.802 65.9175C119.346 66.9055 117.9 67.9078 116.466 68.9263C111.735 72.1083 111.735 72.1083 108.586 71.6445C107.306 70.8305 107.306 70.8305 106 70C105.372 69.6119 104.744 69.2238 104.096 68.824C101.725 67.3372 99.394 65.7983 97.0625 64.25C95.2624 63.0667 93.4616 61.8845 91.6602 60.7031C90.7283 60.0915 89.7965 59.4798 88.8364 58.8496C84.2502 55.859 79.6252 52.93 75 50C67.2268 45.0685 59.4907 40.0846 51.7808 35.0549C43.6853 29.7801 35.5448 24.5764 27.3992 19.3794C22.5695 16.2958 17.749 13.2068 13 10C13.9977 7.44129 14.6434 6.21688 17.0234 4.76954C17.7995 4.45372 18.5755 4.1379 19.375 3.81251C20.1459 3.48896 20.9167 3.1654 21.7109 2.83204C26.1351 1.22394 29.9023 0.869811 34.6331 0.852842Z" fill="#5D62F5"/>
<path d="M6 16C10.3793 17.5539 14.1632 19.8299 18.0625 22.3125C18.7522 22.7476 19.442 23.1828 20.1526 23.6311C28.3321 28.8102 36.4354 34.108 44.5425 39.3994C48.3542 41.882 52.1777 44.3463 56 46.8125C62.7094 51.1455 69.3722 55.5431 76 60C75.4699 64.0706 73.4346 65.8998 70.5547 68.7031C69.642 69.6016 68.7294 70.5001 67.7891 71.4258C66.8181 72.3676 65.8468 73.309 64.875 74.25C59.2879 79.7066 53.7812 85.1253 48.7075 91.0654C44.812 95.479 40.5143 99.5218 36.3164 103.645C32.2624 107.655 28.4153 111.754 24.6968 116.076C21.9536 119.186 19.0158 122.091 16.0625 125C15.474 125.584 14.8856 126.168 14.2793 126.77C12.8552 128.182 11.4279 129.591 10 131C6.79288 128.129 5.21886 125.746 3.8125 121.688C3.48895 120.784 3.16539 119.88 2.83203 118.949C1.19048 113.131 0.872335 107.409 0.854738 101.387C0.85138 100.661 0.848021 99.935 0.844561 99.1868C0.835126 96.8055 0.833111 94.4243 0.832033 92.043C0.828815 90.373 0.825451 88.703 0.821947 87.033C0.815975 83.5389 0.814105 80.0447 0.814699 76.5505C0.814801 72.0957 0.801153 67.641 0.783927 63.1861C0.772753 59.7381 0.770782 56.2901 0.771309 52.842C0.770137 51.2008 0.765759 49.5595 0.757977 47.9182C0.709395 36.6143 1.04566 26.3591 6 16Z" fill="#5C62F6"/>
<path d="M213.199 15.9844C215.92 17.5187 216.107 19.0036 217 22C217.303 25.237 217.304 28.4626 217.306 31.7122C217.315 32.6851 217.323 33.6581 217.332 34.6606C217.356 37.874 217.364 41.0873 217.371 44.3008C217.38 46.5389 217.389 48.777 217.398 51.0152C217.415 55.7067 217.423 60.3981 217.426 65.0896C217.431 71.0919 217.469 77.0936 217.514 83.0957C217.544 87.7189 217.551 92.342 217.552 96.9653C217.556 99.1776 217.569 101.39 217.59 103.602C217.617 106.702 217.612 109.8 217.599 112.9C217.614 113.807 217.629 114.715 217.644 115.651C217.571 122.021 215.875 125.961 212 131C208.763 129.921 208.297 129.417 206.25 126.875C201.989 121.831 197.305 117.25 192.595 112.632C189.478 109.557 186.477 106.448 183.625 103.125C179.495 98.3353 175.005 93.934 170.5 89.5C165.33 84.4112 160.294 79.3009 155.568 73.7949C153.34 71.2439 150.974 68.8787 148.562 66.5C147.698 65.6441 146.833 64.7881 145.941 63.9062C145.301 63.2772 144.66 62.6481 144 62C145.488 57.5051 149.014 55.832 152.875 53.5625C154.333 52.679 155.79 51.7935 157.246 50.9062C158.019 50.437 158.793 49.9678 159.589 49.4844C163.755 46.9196 167.844 44.2392 171.938 41.5625C173.634 40.4556 175.331 39.3489 177.027 38.2422C178.272 37.4296 178.272 37.4296 179.542 36.6006C181.901 35.0643 184.264 33.5344 186.629 32.0078C187.36 31.5356 188.092 31.0634 188.845 30.5769C190.263 29.663 191.681 28.7503 193.1 27.8391C196.299 25.7785 199.468 23.6922 202.582 21.5039C203.648 20.7601 204.714 20.0163 205.812 19.25C206.726 18.5952 207.64 17.9403 208.582 17.2656C211 16 211 16 213.199 15.9844Z" fill="#5B61F6"/>
</svg>
