<?xml version="1.0" standalone="no"?>
<!DOCTYPE svg PUBLIC "-//W3C//DTD SVG 20010904//EN"
 "http://www.w3.org/TR/2001/REC-SVG-20010904/DTD/svg10.dtd">
<svg version="1.0" xmlns="http://www.w3.org/2000/svg"
 width="227.000000pt" height="151.000000pt" viewBox="0 0 227.000000 151.000000"
 preserveAspectRatio="xMidYMid meet">

<g transform="translate(0.000000,151.000000) scale(0.100000,-0.100000)"
fill="#000000" stroke="none">
<path d="M275 1422 c-27 -9 -60 -25 -73 -34 l-24 -16 74 -48 c40 -26 199 -128
353 -227 154 -99 335 -215 402 -258 67 -43 126 -80 131 -81 5 -2 58 29 118 68
60 39 244 158 409 265 165 107 328 212 363 234 35 21 65 42 68 47 3 5 -21 21
-53 36 l-58 27 -830 2 c-767 2 -834 1 -880 -15z"/>
<path d="M95 1253 c-30 -72 -35 -136 -35 -492 0 -387 7 -469 46 -548 l25 -52
37 37 c42 42 527 545 585 607 20 22 37 42 36 45 0 3 -140 95 -311 205 -171
110 -324 208 -339 218 l-28 18 -16 -38z"/>
<path d="M1830 1074 c-184 -119 -336 -218 -338 -219 -2 -2 65 -74 150 -162
264 -273 392 -406 455 -472 l61 -64 23 44 24 44 3 474 c2 415 1 480 -13 522
-9 27 -20 49 -23 49 -4 0 -158 -97 -342 -216z"/>
<path d="M542 442 c-371 -386 -353 -357 -246 -388 43 -12 170 -14 865 -12
l814 3 48 22 c45 21 47 24 35 42 -12 17 -235 250 -562 589 -49 50 -93 92 -98
92 -4 0 -60 -34 -125 -75 -64 -41 -123 -75 -132 -75 -8 0 -67 34 -132 75 -64
41 -120 75 -125 75 -5 -1 -159 -157 -342 -348z"/>
</g>
</svg>
