<svg width="683" height="352" viewBox="0 0 683 352" fill="none" xmlns="http://www.w3.org/2000/svg">
<path d="M111 0.999995C114.608 3.00979 117.763 5.44818 121 7.99999C124.229 9.61444 127.499 9.45238 131 8.99999C134.5 7.67282 137.711 5.78176 140.906 3.84374C148.985 -0.506184 159.296 -0.420549 168.074 1.76562C171.858 3.22579 175.196 5.10682 178.625 7.24999C182.637 9.33047 185.644 10.1587 190 8.99999C194.172 6.79969 198.638 4.36169 202 0.999995C207.541 0.260404 212.339 0.826726 217.207 3.62499C221.47 6.89438 223.463 10.6802 224.664 15.8711C225.586 22.9692 224.652 27.8844 221 34C220.402 35.0106 219.804 36.0212 219.188 37.0625C216.346 40.8785 213.42 44.6811 210 48C209.34 48 208.68 48 208 48C208 48.66 208 49.32 208 50C208.598 50.2475 209.196 50.495 209.813 50.75C212.413 52.2361 213.544 53.3795 215 56C215.588 59.8656 215.114 61.7579 213.438 65.3125C210.356 68.7105 208.443 68.5593 204 69C210.388 78.1369 217.044 87.0439 223.823 95.894C228.359 101.824 232.833 107.794 237.25 113.812C237.821 114.589 238.392 115.366 238.98 116.166C241.197 119.182 243.412 122.199 245.626 125.217C247.183 127.336 248.745 129.451 250.313 131.562C250.805 132.226 251.297 132.89 251.805 133.573C254.598 137.287 257.523 140.709 260.75 144.062C274.746 159.341 282.054 183.296 287 203C287.272 203.909 287.544 204.818 287.824 205.754C290.527 214.811 292.234 224.524 292 234C292.581 234.263 293.163 234.526 293.762 234.797C302.804 239.657 307.247 248.896 311 258C314.164 269.112 313.213 283.798 308 294C302.326 303.869 295.427 312.882 284.312 316.75C278.966 318.861 277.328 323.013 274.73 327.898C268.473 339.113 258.255 345.889 246.357 350.133C239.809 351.824 233.111 351.537 226.396 351.486C224.746 351.488 223.095 351.492 221.445 351.497C216.993 351.507 212.54 351.492 208.088 351.471C203.412 351.454 198.736 351.457 194.061 351.458C186.212 351.456 178.363 351.439 170.515 351.412C161.46 351.38 152.405 351.37 143.35 351.371C133.68 351.372 124.011 351.359 114.341 351.34C111.567 351.336 108.793 351.335 106.019 351.334C101.65 351.332 97.2809 351.319 92.9117 351.299C91.3146 351.294 89.7175 351.291 88.1205 351.292C71.1244 351.3 58.9503 349.262 46.2734 337.285C38 328.969 38 328.969 38 326C37.2652 325.732 36.5305 325.464 35.7734 325.188C24.9715 320.562 18.066 310.741 13.7774 300.121C9.4613 288.344 9.40734 276.062 14.2227 264.453C15.0898 261.717 15.1093 260.617 14 258C12.7766 256.349 12.7766 256.349 11.25 254.812C1.51861 243.841 0.204148 232.085 0.852061 217.953C1.75966 205.972 9.36961 194.959 18 187C22.1003 184.093 26.2809 181.624 31.0117 179.906C35.3713 177.125 36.6275 173.5 38.6875 168.875C44.5609 156.451 51.2491 144.635 60.7305 134.594C65.9755 128.599 70.4827 121.966 75.1621 115.527C78.0539 111.551 80.9624 107.586 83.875 103.625C84.7176 102.476 84.7176 102.476 85.5772 101.303C88.8119 96.908 92.0983 92.5587 95.4375 88.2422C96.1763 87.2849 96.9151 86.3276 97.6763 85.3413C99.1188 83.4773 100.567 81.618 102.023 79.7642C102.673 78.9242 103.323 78.0842 103.992 77.2187C104.573 76.4756 105.155 75.7325 105.753 74.9668C107.268 72.9658 107.268 72.9658 107 70C105.349 68.9739 103.68 67.9769 102 67C99.8566 65.0783 99.11 63.7268 98.6797 60.8828C98.4835 56.8939 98.4683 54.7266 100.875 51.4375C103 50 103 50 105 50C104.564 49.5153 104.129 49.0306 103.68 48.5312C86.9699 29.7237 86.9699 29.7237 87.5508 18.2656C88.9596 11.1604 93.1906 6.04132 99 1.99999C103.156 0.614764 106.668 0.158682 111 0.999995Z" fill="#FCD788"/>
<path d="M682 0.999983C682.329 9.16554 681.398 16.6376 679.75 24.625C679.407 26.3373 679.407 26.3373 679.056 28.0842C678.386 31.3928 677.698 34.697 677 38C676.824 38.84 676.648 39.68 676.467 40.5454C668.203 79.4574 651.14 115.918 631 150C630.518 150.818 630.036 151.636 629.539 152.479C616.924 173.78 602.856 194.944 586.012 213.141C582.262 218.47 582.893 224.604 583.34 230.875C583.386 231.603 583.432 232.331 583.479 233.082C583.625 235.388 583.781 237.694 583.938 240C584.089 242.306 584.238 244.612 584.386 246.918C584.477 248.347 584.572 249.775 584.669 251.203C585.468 263.344 585.468 263.344 582.84 267.027C581.889 268.014 580.921 268.983 579.938 269.937C578.914 270.99 577.89 272.044 576.867 273.098C576.369 273.599 575.871 274.101 575.358 274.618C573.692 276.314 572.118 278.076 570.563 279.875C570.024 280.495 569.485 281.115 568.93 281.754C567.369 283.571 565.812 285.392 564.258 287.215C563.235 288.414 562.211 289.613 561.188 290.812C560.67 291.419 560.153 292.025 559.62 292.649C556.415 296.39 553.148 300.061 549.813 303.687C546.623 307.161 543.58 310.699 540.625 314.375C536.251 319.796 531.569 324.875 526.816 329.961C523.857 333.134 521.012 336.397 518.207 339.707C517.809 340.134 517.41 340.56 517 341C516.67 341 516.34 341 516 341C515.914 339.993 515.827 338.986 515.738 337.949C513.343 312.955 505.005 287.007 491 266C488.775 265.584 488.775 265.584 486.211 265.707C485.27 265.717 484.329 265.726 483.359 265.736C482.375 265.761 481.39 265.787 480.375 265.812C478.886 265.833 478.886 265.833 477.367 265.853C474.911 265.889 472.456 265.938 470 266C469.888 266.553 469.775 267.106 469.659 267.676C465.384 287.888 457.422 307.974 439.688 319.875C425.063 328.425 408.823 332.924 392.387 336.482C390.76 336.835 389.135 337.196 387.512 337.564C372.258 340.979 357.598 341.486 342 341C341.369 309.5 341.369 309.5 345 294C345.242 292.934 345.483 291.867 345.732 290.769C357.113 241.059 357.113 241.059 378.297 226.777C385.782 222.203 393.698 218.81 402 216C402.944 215.68 403.887 215.361 404.859 215.031C409.081 213.682 412.536 212.851 417 213C416.988 211.819 416.977 210.638 416.965 209.422C416.956 207.865 416.946 206.307 416.938 204.75C416.929 203.973 416.921 203.195 416.912 202.395C416.909 201.64 416.906 200.886 416.902 200.109C416.897 199.418 416.892 198.727 416.887 198.015C417.006 195.9 417.424 194.034 418 192C417.328 191.755 416.657 191.51 415.965 191.258C413.066 190.028 410.376 188.572 407.634 187.03C392.751 178.732 376.488 173.188 360 169C359.165 168.787 358.329 168.575 357.469 168.355C352.34 167.135 347.247 166.5 342 166C345.515 162.44 349.116 158.997 352.813 155.625C353.608 154.898 353.608 154.898 354.42 154.156C359.606 149.429 364.875 144.81 370.215 140.258C371.414 139.235 372.613 138.211 373.813 137.187C374.722 136.412 374.722 136.412 375.649 135.62C379.391 132.415 383.061 129.148 386.688 125.812C390.161 122.623 393.699 119.579 397.375 116.625C402.348 112.62 407.03 108.363 411.673 103.985C416.031 99.8916 418.441 97.7248 424.5 97.8125C425.459 97.8189 426.418 97.8254 427.406 97.832C430.343 97.9693 433.235 98.1923 436.16 98.4687C453.204 100.744 453.204 100.744 469.52 97.2969C471.963 95.1854 474.183 92.9765 476.38 90.6128C479.634 87.3731 483.381 84.7287 487.063 82C487.904 81.3716 488.745 80.7431 489.611 80.0957C508.552 66.0813 528.408 53.4412 549 42C549.889 41.5042 550.777 41.0084 551.692 40.4975C589 19.8476 638.693 -0.32217 682 0.999983Z" fill="#55ABED"/>
<path d="M556 127C555.678 133.184 554.535 137.953 551.313 143.313C550.919 143.987 550.525 144.662 550.119 145.357C540.111 162.132 527.942 177.582 516 193C515.375 193.808 514.751 194.616 514.107 195.448C510.608 199.969 507.097 204.48 503.576 208.983C502.106 210.864 500.641 212.748 499.176 214.633C493.015 222.541 486.683 230.299 480.289 238.02C478.333 240.382 476.386 242.75 474.461 245.137C469.792 250.92 464.932 256.444 459.871 261.883C457.89 263.654 457.89 263.654 458 265C461.96 265.33 465.92 265.66 470 266C466.405 285.771 458.429 305.426 442.336 318.098C427.444 328.091 409.714 332.732 392.387 336.482C390.76 336.835 389.135 337.196 387.512 337.564C372.258 340.979 357.598 341.486 342 341C341.369 309.5 341.369 309.5 345 294C345.242 292.934 345.483 291.867 345.732 290.769C357.113 241.059 357.113 241.059 378.297 226.777C385.782 222.203 393.698 218.81 402 216C402.944 215.68 403.887 215.361 404.859 215.031C409.27 213.622 412.254 213 417 213C417.495 218.445 417.495 218.445 418 224C423.446 220.067 428.429 215.861 433.391 211.336C436.785 208.298 440.299 205.43 443.84 202.566C446.202 200.656 448.544 198.722 450.879 196.777C460.043 189.156 469.365 181.798 478.875 174.613C481.009 172.993 483.131 171.359 485.25 169.719C540.871 126.72 540.871 126.72 556 127Z" fill="#FEAC34"/>
<path d="M162 108C166.522 110.22 168.888 112.459 171 117C171.351 119.95 171.284 122.848 171.187 125.812C171.167 126.995 171.167 126.995 171.146 128.201C171.111 130.134 171.058 132.067 171 134C171.799 133.937 172.598 133.874 173.422 133.809C178.082 134.058 181.906 135.429 186.25 137.062C187.092 137.378 187.935 137.694 188.803 138.02C196.457 140.999 203.935 144.379 208.625 151.437C210.338 155.877 210.61 158.275 210 163C208.332 165.8 207.181 167.471 204.187 168.812C203.466 168.874 202.744 168.936 202 169C200.989 169.112 199.979 169.224 198.937 169.34C193.583 168.878 190.28 166.586 185.812 163.75C173.99 156.611 163.318 151.778 149.234 154.543C142.87 156.267 138.054 158.675 133.625 163.687C131.539 167.94 131.252 171.342 132 176C133.37 178.871 133.37 178.871 135 181C135 181.66 135 182.32 135 183C135.507 183.251 136.013 183.503 136.535 183.762C138.507 184.752 140.472 185.758 142.434 186.77C152.566 191.961 162.702 196.344 173.585 199.766C188.609 204.545 204.123 212.577 212 227C215.668 237.711 215.186 248.631 210.68 258.992C207.839 264.08 204.241 268.04 200 272C199.111 272.86 199.111 272.86 198.203 273.738C191.598 279.393 180.655 284 172 284C172.046 285.146 172.093 286.292 172.141 287.473C172.178 289.003 172.215 290.533 172.25 292.062C172.284 292.815 172.317 293.567 172.352 294.342C172.451 300.079 171.32 303.297 168 308C163.827 311.501 159.662 312.771 154.215 312.52C150.233 311.586 147.486 309.175 145 306C142.529 301.498 142.766 297.179 142.875 292.188C142.884 291.399 142.893 290.611 142.902 289.799C142.926 287.866 142.962 285.933 143 284C142.429 283.974 141.858 283.948 141.27 283.922C127.448 282.955 112.954 277.954 103 268C99.5297 263.681 98.2763 259.632 98.5508 254.086C99.3198 250.515 101.074 249.035 104 247C108.608 245.566 111.253 246.187 115.506 248.402C116.164 248.764 116.822 249.127 117.5 249.5C118.195 249.864 118.89 250.227 119.606 250.602C121.744 251.722 123.872 252.86 126 254C141.734 262.331 155.649 266.034 173.473 260.914C179.076 258.887 182.635 255.861 186 251C187.596 246.213 188.168 241.549 186.012 236.844C182.121 231.144 177.058 228.082 171 225C169.918 224.446 168.837 223.891 167.723 223.32C160.576 219.781 153.303 216.988 145.75 214.438C130.25 209.181 114.141 200.9 106.301 185.707C103.59 177.981 103.751 168.293 106.562 160.562C112.391 148.48 122.211 140.353 134.711 135.691C137.123 134.963 139.523 134.451 142 134C142.039 132.372 142.039 132.372 142.078 130.711C142.134 129.266 142.192 127.82 142.25 126.375C142.264 125.662 142.278 124.949 142.293 124.215C142.582 117.905 144.911 114.334 149.125 109.625C153.388 107.216 157.215 107.241 162 108Z" fill="#68757F"/>
<path d="M556 127C555.678 133.184 554.535 137.953 551.312 143.312C550.919 143.987 550.525 144.662 550.119 145.357C540.111 162.132 527.942 177.582 516 193C515.375 193.808 514.751 194.616 514.107 195.448C510.608 199.969 507.097 204.48 503.576 208.983C502.106 210.864 500.64 212.748 499.176 214.633C493.014 222.542 486.681 230.302 480.285 238.023C477.601 241.265 474.953 244.535 472.312 247.812C470.879 249.545 469.441 251.274 468 253C467.587 253.509 467.174 254.019 466.749 254.543C455.906 267.83 444.083 270.972 427.48 272.786C421.65 273.289 415.844 273.239 410 273C409.021 234.479 409.021 234.479 420.383 222.484C423.181 219.886 426.051 217.426 429 215C430.321 213.908 430.321 213.908 431.668 212.793C433.46 211.324 435.259 209.862 437.062 208.406C440.364 205.702 443.587 202.919 446.812 200.125C453.087 194.713 459.529 189.557 466.082 184.488C468.133 182.897 470.174 181.295 472.215 179.691C540.561 126.074 540.561 126.074 556 127Z" fill="#9F051F"/>
<path d="M424.5 97.8125C425.459 97.8189 426.418 97.8254 427.406 97.832C430.339 97.9691 433.224 98.1962 436.145 98.4766C442.153 99.0459 448.158 99.3266 454.188 99.5625C455.759 99.6273 455.759 99.6273 457.361 99.6934C459.907 99.798 462.454 99.9002 465 100C464.07 101.105 463.137 102.207 462.203 103.309C461.684 103.923 461.165 104.537 460.63 105.17C459.081 106.909 457.465 108.488 455.75 110.062C435.617 129.974 424.642 159.699 419.613 186.98C419 190 419 190 418 192C414.339 190.665 411.026 188.939 407.634 187.03C392.751 178.732 376.488 173.188 360 169C358.747 168.681 358.747 168.681 357.469 168.355C352.34 167.135 347.247 166.5 342 166C345.515 162.44 349.116 158.997 352.812 155.625C353.343 155.14 353.874 154.655 354.42 154.156C359.606 149.429 364.875 144.81 370.215 140.258C371.414 139.235 372.613 138.211 373.812 137.187C374.419 136.67 375.025 136.153 375.649 135.62C379.391 132.415 383.061 129.148 386.688 125.812C390.161 122.623 393.699 119.58 397.375 116.625C402.348 112.62 407.03 108.363 411.673 103.985C416.031 99.8916 418.441 97.7248 424.5 97.8125Z" fill="#A0061F"/>
<path d="M581 219C583.313 222.676 583.432 226.361 583.633 230.582C583.674 231.314 583.716 232.047 583.759 232.801C583.889 235.138 584.007 237.475 584.125 239.812C584.211 241.373 584.299 242.934 584.387 244.494C584.615 248.662 584.836 252.829 585 257C585.052 258.257 585.104 259.514 585.158 260.81C584.944 265.132 582.896 267.067 579.938 269.938C578.913 270.99 577.89 272.044 576.867 273.098C576.369 273.599 575.871 274.101 575.358 274.618C573.691 276.314 572.118 278.076 570.562 279.875C570.024 280.495 569.485 281.115 568.93 281.754C567.369 283.571 565.812 285.392 564.258 287.215C563.235 288.414 562.211 289.613 561.188 290.812C560.67 291.419 560.153 292.025 559.62 292.649C556.415 296.391 553.148 300.061 549.812 303.688C546.623 307.161 543.58 310.699 540.625 314.375C536.251 319.796 531.569 324.875 526.816 329.961C523.857 333.134 521.012 336.397 518.207 339.707C517.809 340.134 517.41 340.56 517 341C516.67 341 516.34 341 516 341C515.914 339.993 515.827 338.986 515.738 337.949C513.508 314.675 505.813 293.952 495.172 273.301C493.607 270.254 492.181 267.221 491 264C492.272 263.72 493.545 263.441 494.855 263.152C527.901 255.704 557.055 243.587 581 219Z" fill="#A00620"/>
<path d="M417 225C416.101 230.038 414.515 234.788 412.937 239.648C410.887 246.981 410.724 254.375 410.437 261.938C410.394 263.003 410.351 264.068 410.307 265.166C410.201 267.777 410.099 270.389 410 273C432.022 271.827 432.022 271.827 452.977 265.805C455 265 455 265 458 265C457.534 276.156 453.929 284.983 446 293C435.238 301.321 424.676 303.262 411.384 302.333C403.006 301.163 394.938 296.149 389.387 289.871C382.103 280.043 378.634 269.246 380 257C382.393 245.645 388.508 236.667 398 230C404.329 226.224 409.598 224.828 417 225Z" fill="#FECB4C"/>
<path d="M110.161 48.8596C111.432 48.851 111.432 48.851 112.727 48.8423C113.653 48.8411 114.579 48.84 115.533 48.8389C116.51 48.8339 117.488 48.8289 118.495 48.8238C121.734 48.8092 124.972 48.8024 128.211 48.7969C130.459 48.7911 132.707 48.7854 134.955 48.7796C139.671 48.7691 144.387 48.7632 149.103 48.7598C155.149 48.7543 161.193 48.7302 167.238 48.7018C171.883 48.6832 176.527 48.678 181.172 48.6764C183.401 48.6734 185.63 48.6654 187.858 48.6522C190.975 48.6352 194.092 48.6371 197.208 48.6436C198.13 48.6343 199.052 48.6251 200.002 48.6156C205.944 48.6545 209.482 49.482 213.812 53.8125C215.446 56.8209 215.474 58.6128 215 62C211.842 67.5789 211.842 67.5789 209 69C207.605 69.1042 206.206 69.1481 204.807 69.1606C203.928 69.1707 203.049 69.1807 202.143 69.1911C201.176 69.1969 200.21 69.2027 199.214 69.2087C198.197 69.2185 197.181 69.2283 196.134 69.2384C192.76 69.2684 189.386 69.2897 186.012 69.3086C184.286 69.3185 184.286 69.3185 182.526 69.3285C176.438 69.3611 170.351 69.3856 164.263 69.405C159.218 69.4229 154.173 69.4577 149.128 69.5076C143.044 69.5676 136.96 69.5985 130.876 69.6082C128.555 69.6168 126.234 69.6356 123.913 69.6649C120.666 69.7037 117.422 69.7049 114.175 69.697C112.733 69.727 112.733 69.727 111.263 69.7576C104.91 69.6882 104.91 69.6882 102.285 67.7023C98.9165 63.8132 98.2878 60.9902 98.5703 56.0547C99.2033 53.0279 100.486 51.7236 103 50C105.735 49.0882 107.346 48.8709 110.161 48.8596Z" fill="#C06B53"/>
<path d="M593.688 49.5C594.861 49.5097 594.861 49.5097 596.058 49.5195C606.626 49.8481 615.439 53.3405 623.062 60.7539C632.094 71.2244 633.87 81.5341 633.195 94.8916C632.321 104.333 626.288 112.209 619.438 118.375C616.788 120.541 614.31 121.997 611 123C611.159 122.201 611.317 121.402 611.48 120.578C613.003 110.094 614.059 97.1611 608 88C603.237 81.6741 598.122 76.5324 591 73C589.824 72.4019 588.649 71.8038 587.438 71.1875C578.905 68.2138 568.463 69.2366 560 72C561.751 63.7802 567.508 59.5269 573.988 54.7969C580.418 50.9606 586.218 49.435 593.688 49.5Z" fill="#010203"/>
</svg>
