<svg width="999" height="698" viewBox="0 0 999 698" fill="none" xmlns="http://www.w3.org/2000/svg">
<path d="M785.966 681.242C827.22 668.788 902.323 634.757 929.315 609.57C960.44 583.206 908.824 551.45 901.165 547.005C893.505 542.56 402.083 297.614 336.427 268.723C270.771 239.832 102.768 341.635 52.4254 369.581C11.3904 392.36 40.3884 408.473 45.8598 412.918C51.331 417.362 427.047 611.792 539.757 665.13C625.111 705.522 704.991 705.689 785.966 681.242Z" fill="black" fill-opacity="0.1"/>
<path fill-rule="evenodd" clip-rule="evenodd" d="M428.462 439.433L478.788 416.095L478.802 416.126C479.123 415.97 479.447 415.819 479.773 415.672C509.751 402.219 552.516 432.697 575.292 483.746C598.068 534.796 592.231 587.085 562.254 600.537C561.828 600.729 561.399 600.911 560.968 601.085L512.483 623.6L485.557 564.581C478.47 555.197 472.057 544.391 466.735 532.463C461.827 521.462 458.247 510.404 455.952 499.689L428.462 439.433Z" fill="black"/>
<ellipse cx="59.5176" cy="101.095" rx="59.5176" ry="101.095" transform="matrix(-0.911976 0.409256 0.40762 0.913593 484.173 414.593)" fill="black"/>
<g filter="url(#filter0_i_3_1558)">
<ellipse cx="44.6403" cy="75.8251" rx="44.6403" ry="75.8251" transform="matrix(-0.911976 0.409256 0.40762 0.913593 479.203 443.817)" fill="url(#paint0_linear_3_1558)"/>
</g>
<g filter="url(#filter1_di_3_1558)">
<path fill-rule="evenodd" clip-rule="evenodd" d="M470.876 477.148C477.428 480.952 483.897 486.665 489.727 493.892L476.713 516.498C474.877 514.342 472.895 512.568 470.876 511.254L470.876 477.148ZM470.876 553.799C473.862 555.053 476.811 555.23 479.375 554.08C479.414 554.062 479.454 554.044 479.493 554.026L498.491 587.027C497.419 587.755 496.284 588.391 495.088 588.928C487.821 592.189 479.35 591.312 470.876 587.151L470.876 553.799ZM468.581 585.945L468.581 552.627C466.278 551.244 464.007 549.256 461.93 546.778L449.17 568.943C455.169 576.354 461.842 582.165 468.581 585.945ZM468.581 509.967L468.581 475.896C459.891 471.456 451.17 470.447 443.717 473.792C441.643 474.723 439.754 475.952 438.054 477.444L457.258 510.803C457.914 510.23 458.641 509.758 459.44 509.399C462.187 508.166 465.378 508.458 468.581 509.967ZM435.57 546.542C438.971 554.165 443.088 561.05 447.64 566.999L460.406 544.824C458.86 542.692 457.458 540.276 456.278 537.631C456.093 537.215 455.915 536.799 455.745 536.383L433.779 542.286C434.34 543.705 434.938 545.124 435.57 546.542ZM478.247 518.434L491.254 495.839C495.771 501.761 499.856 508.606 503.234 516.178C503.911 517.694 504.547 519.213 505.143 520.73L482.907 526.705C482.787 526.419 482.664 526.133 482.536 525.848C481.315 523.111 479.857 520.62 478.247 518.434ZM432.951 540.13C428.948 529.347 426.975 518.668 426.924 509.068L452.948 524.136C453.08 527.305 453.733 530.74 454.933 534.223L432.951 540.13ZM483.743 528.859C485.191 532.928 485.894 536.944 485.892 540.558L511.865 555.597C512.087 545.591 510.163 534.303 505.963 522.888L483.743 528.859ZM511.758 558.188L485.764 543.137C485.34 547.299 483.871 550.73 481.428 552.787L500.336 585.631C507.148 579.922 511.033 570.08 511.758 558.188ZM426.958 506.434L452.961 521.49C453.154 517.95 454.064 514.869 455.649 512.608L436.354 479.091C430.524 485.306 427.327 495.006 426.958 506.434Z" fill="#4C4C4C"/>
</g>
<path fill-rule="evenodd" clip-rule="evenodd" d="M428.47 438.369L478.796 415.031L478.811 415.066C479.126 414.913 479.443 414.765 479.764 414.621C509.741 401.169 552.506 431.646 575.282 482.696C598.058 533.745 592.22 586.034 562.243 599.487C561.791 599.69 561.336 599.883 560.879 600.066L512.491 622.537L485.608 563.611C478.497 554.208 472.062 543.375 466.725 531.413C461.802 520.379 458.216 509.287 455.921 498.541L428.47 438.369Z" fill="black"/>
<path d="M416.463 555.67C439.222 606.679 481.973 637.124 511.95 623.672C541.928 610.219 547.779 557.963 525.02 506.954C502.262 455.945 458.224 422.753 428.247 436.206C398.269 449.658 393.704 504.661 416.463 555.67Z" fill="#242424"/>
<g filter="url(#filter2_i_3_1558)">
<ellipse cx="41.8401" cy="73.1191" rx="41.8401" ry="73.1191" transform="matrix(-0.939744 0.342056 0.316393 0.948614 486.129 447.683)" fill="url(#paint1_linear_3_1558)"/>
</g>
<g filter="url(#filter3_di_3_1558)">
<path fill-rule="evenodd" clip-rule="evenodd" d="M441.731 544.553C450.965 569.759 469.09 586.231 484.158 583.439L475.163 557.094C468.554 557.019 461.161 550.109 456.83 539.753L441.731 544.553ZM439.592 537.995C432.462 513.132 436.662 489.512 449.391 481.614L458.389 507.968C453.489 512.459 451.927 522.493 454.646 533.209L439.592 537.995ZM483.504 524.035C479.278 513.091 471.641 505.678 464.814 505.518L455.811 479.151C471.088 476.453 489.456 493.466 498.52 519.262L483.504 524.035ZM485.51 530.636L500.571 525.848C507.195 550.173 502.979 573.076 490.56 580.922L481.559 554.561C486.203 550.207 487.793 540.818 485.51 530.636Z" fill="#A9A8A8"/>
</g>
<path fill-rule="evenodd" clip-rule="evenodd" d="M76.3003 291.414L114.001 273.93L114.008 273.946C114.243 273.832 114.481 273.721 114.72 273.614C137.177 263.536 169.214 286.368 186.277 324.611C203.339 362.854 198.966 402.026 176.509 412.104C176.239 412.225 175.968 412.341 175.695 412.453L139.244 429.381L119.104 385.235C113.775 378.19 108.952 370.072 104.952 361.107C101.262 352.837 98.5751 344.523 96.8562 336.47L76.3003 291.414Z" fill="black"/>
<ellipse cx="44.587" cy="75.7345" rx="44.587" ry="75.7345" transform="matrix(-0.945518 0.324327 0.32255 0.946978 125.965 274.065)" fill="black"/>
<g filter="url(#filter4_i_3_1558)">
<ellipse cx="33.4418" cy="56.8036" rx="33.4418" ry="56.8036" transform="matrix(-0.911976 0.409256 0.40762 0.913593 114.297 294.697)" fill="url(#paint2_linear_3_1558)"/>
</g>
<g filter="url(#filter5_di_3_1558)">
<path fill-rule="evenodd" clip-rule="evenodd" d="M108.609 320.012C113.313 322.855 117.946 327.004 122.137 332.196L112.392 349.123C111.196 347.721 109.916 346.535 108.609 345.604L108.609 320.012ZM108.609 377.309C110.467 377.976 112.292 378.071 113.93 377.486L128.219 402.306C127.564 402.719 126.879 403.086 126.165 403.407C120.887 405.775 114.762 405.229 108.609 402.354L108.609 377.309ZM106.314 401.175L106.314 376.207C104.73 375.255 103.165 373.92 101.715 372.27L92.1437 388.897C96.5414 394.231 101.404 398.423 106.314 401.175ZM106.314 344.248L106.314 318.733C99.8015 315.404 93.2665 314.647 87.6812 317.154C86.1225 317.853 84.7035 318.777 83.4271 319.9L97.815 344.893C98.311 344.456 98.8626 344.096 99.4685 343.825C101.526 342.901 103.915 343.119 106.314 344.248ZM81.5782 371.654C84.123 377.357 87.2032 382.51 90.6085 386.963L100.178 370.341C99.0252 368.749 97.9802 366.947 97.1002 364.974C97.0403 364.84 96.9814 364.705 96.9237 364.571L80.4492 368.998C80.8072 369.884 81.1835 370.769 81.5782 371.654ZM113.911 351.085L123.659 334.153C126.897 338.477 129.828 343.439 132.268 348.906C132.774 350.041 133.25 351.176 133.695 352.311L117.047 356.785C116.958 356.572 116.866 356.359 116.771 356.147C115.947 354.299 114.978 352.601 113.911 351.085ZM79.614 366.844C76.7094 359.019 75.2322 351.267 75.1083 344.251L94.6452 355.563C94.8033 357.738 95.2807 360.063 96.0907 362.416L79.614 366.844ZM117.862 358.944C118.822 361.81 119.288 364.627 119.285 367.177L138.733 378.438C138.896 371.099 137.518 362.839 134.508 354.471L117.862 358.944ZM138.61 381.02L119.113 369.731C118.716 372.574 117.637 374.91 115.921 376.344L130.085 400.947C135.072 396.775 137.968 389.647 138.61 381.02ZM75.1267 341.608L94.6147 352.892C94.7427 350.522 95.2993 348.426 96.2627 346.797L81.7478 321.583C77.645 326.251 75.3935 333.323 75.1267 341.608Z" fill="#4C4C4C"/>
</g>
<path fill-rule="evenodd" clip-rule="evenodd" d="M76.2835 290.615L113.985 273.131L113.989 273.142C114.226 273.027 114.464 272.916 114.705 272.808C137.162 262.73 169.199 285.562 186.261 323.805C203.324 362.048 198.95 401.22 176.493 411.298C176.264 411.401 176.033 411.501 175.802 411.597L139.227 428.582L119.077 384.414C113.752 377.372 108.934 369.259 104.937 360.301C101.25 352.038 98.5646 343.732 96.8456 335.685L76.2835 290.615Z" fill="black"/>
<path d="M62.8884 371.535C73.0047 412.138 102.599 439.674 128.988 433.038C155.378 426.403 168.57 388.109 158.454 347.506C148.337 306.904 118.149 277.175 91.7598 283.81C65.3701 290.446 52.7721 330.933 62.8884 371.535Z" fill="#242424"/>
<g filter="url(#filter6_i_3_1558)">
<ellipse cx="31.3441" cy="54.7764" rx="31.3441" ry="54.7764" transform="matrix(-0.963522 0.267857 0.241582 0.970366 121.47 301.022)" fill="url(#paint3_linear_3_1558)"/>
</g>
<g filter="url(#filter7_di_3_1558)">
<path fill-rule="evenodd" clip-rule="evenodd" d="M83.2015 372.475C88.5625 389.948 99.7598 402.139 110.344 402.402L105.037 381.716C101.074 380.349 97.2089 375.886 94.826 369.755L83.2015 372.475ZM81.4987 365.789C77.8333 347.831 81.6751 331.293 90.5385 325.194L95.8399 345.861C92.929 349.459 91.761 355.993 92.9868 363.101L81.4987 365.789ZM115.077 357.932C112.561 349.51 107.29 343.526 102.201 343.004L97.016 322.791C108.59 321.641 121.333 335.425 126.602 355.235L115.077 357.932ZM116.39 364.709L128.053 361.98C131.001 379.87 126.487 395.874 117.036 400.837L111.846 380.603C115.283 377.846 117.024 371.727 116.39 364.709Z" fill="#A9A8A8"/>
</g>
<g filter="url(#filter8_ii_3_1558)">
<path d="M42.3361 338.649C42.7389 343.873 44.9172 348.298 47.909 351.929C50.8014 355.439 56.3928 353.305 57.1331 348.817C57.7325 345.183 58.5436 339.772 59.6656 331.457C63.9739 299.532 86.5727 287.238 100.298 290.24C115.898 293.653 129.867 306.544 138.257 328.092C145.023 345.468 149.097 355.285 154.119 394.74C154.264 395.878 154.734 396.919 155.682 397.565C176.084 411.47 407.799 529.199 407.026 526.412C404.933 518.874 404.881 483.215 412.387 465.828C427.131 431.675 450.146 434.932 462.517 436.822C475.629 438.825 506.1 454.82 521.922 487.005C547.012 538.047 540.775 572.715 547.013 590.955C549.059 596.94 648.843 634.728 684.331 643.631C773.063 670.075 898.39 579.986 922.029 562.538C945.668 545.09 947.591 493.784 944.116 436.822C944.169 403.53 937.042 386.271 931.945 380.959C907.571 355.554 849.748 314.359 812.756 294.475C812.146 294.147 811.589 293.708 811.121 293.197C720.733 194.613 714.97 182.322 683.853 167.2C620.609 136.466 363.1 31.9035 306.48 31.9035C273.025 31.9035 155.242 69.9428 123.427 94.1917C98.2222 113.403 74.069 155.974 61.2228 183.874C60.971 184.421 60.8111 184.964 60.7332 185.561C58.2108 204.9 53.3367 261.99 48.215 267.545C41.7136 274.596 41.4712 327.433 42.3361 338.649Z" fill="url(#paint4_linear_3_1558)"/>
</g>
<mask id="mask0_3_1558" style="mask-type:alpha" maskUnits="userSpaceOnUse" x="34" y="31" width="915" height="624">
<path d="M35.2111 341.716C35.6323 347.178 37.9737 351.776 41.1591 355.515C43.9941 358.843 49.1254 356.742 49.7644 352.417C50.3018 348.781 51.0784 343.284 52.2374 334.696C56.5919 302.428 79.9223 289.753 93.7949 292.788C109.563 296.237 123.681 309.267 132.161 331.046C139.005 348.621 143.124 358.545 148.204 398.496C148.343 399.59 148.806 400.602 149.716 401.225C169.961 415.098 404.596 534.313 403.813 531.494C401.698 523.874 401.646 487.833 409.232 470.259C424.134 435.74 447.397 439.032 459.9 440.943C473.153 442.967 503.951 459.134 519.942 491.664C545.302 543.253 538.998 578.294 545.302 596.729C547.371 602.778 648.225 640.972 684.093 649.97C773.778 676.698 900.449 585.642 924.342 568.007C948.234 550.372 950.178 498.516 946.666 440.943C946.719 407.293 939.516 389.849 934.364 384.48C909.719 358.792 851.238 317.132 813.851 297.044C813.265 296.729 812.731 296.307 812.28 295.816C720.875 196.137 712.507 183.482 666.754 161.248C602.832 130.184 359.416 31.6797 302.189 31.6797C268.375 31.6797 149.328 70.1271 117.172 94.6362C91.6845 114.063 67.2611 157.123 54.2818 185.321C54.0398 185.847 53.8864 186.367 53.8114 186.941C51.2637 206.444 46.3337 264.231 41.1531 269.849C34.5819 276.976 34.3369 330.379 35.2111 341.716Z" fill="url(#paint5_linear_3_1558)"/>
</mask>
<g mask="url(#mask0_3_1558)">
<g filter="url(#filter9_ddi_3_1558)">
<path d="M561.851 398.231C539.88 389.14 514.043 311.545 486.789 263.849C484.745 260.271 486.279 255.678 490.105 254.146L688.994 174.487C690.646 173.826 692.46 173.888 693.928 174.894C700.691 179.531 723.563 198.048 781.731 266.662C799.73 287.893 802.382 290.53 811.388 300.395C812.726 301.861 807.928 308.834 803.242 312.696C783.963 328.584 614.848 420.161 561.851 398.231Z" fill="url(#paint6_linear_3_1558)"/>
</g>
<g filter="url(#filter10_di_3_1558)">
<path d="M454.677 264.803C421.301 246.692 343.763 209.977 319.469 198.534C315.672 196.746 311.254 198.991 310.451 203.11C306.317 224.331 295.962 280.309 301.178 283.193C423.42 350.81 464.627 370.91 471.015 373.974C481.748 379.121 507.407 395.418 502.86 382.173C495.757 361.479 475.047 275.857 454.677 264.803Z" fill="url(#paint7_linear_3_1558)"/>
</g>
<g filter="url(#filter11_f_3_1558)">
<path d="M638.539 471.006C589.892 450.187 562.083 423.033 532.404 398.344C619.235 421.213 801.052 471.511 798.342 475.229C794.953 479.878 782.182 485.66 739.288 489.874C697.058 494.023 644.109 473.39 638.539 471.006Z" fill="url(#paint8_linear_3_1558)" fill-opacity="0.21"/>
</g>
<path d="M725.252 356.382L566.494 222.179C551.73 228.349 505.079 247.716 498.235 250.286C489.367 253.616 485.571 256.463 485.571 256.463C483.872 258.162 482.649 256.472 485.571 261.714C490.822 271.135 498.347 286.726 509.199 309.743C528.349 350.359 546.56 394.578 563.097 399.469C585.026 405.955 620.598 397.244 648.962 387.887C674.315 379.523 706.448 364.021 725.252 356.382Z" fill="#C4C4C4" fill-opacity="0.2"/>
<g filter="url(#filter12_di_3_1558)">
<path d="M330.017 339.549C330.017 338.891 329.642 338.291 329.051 338.004L307.199 327.379C306.063 326.827 304.742 327.654 304.742 328.919L304.742 333.352C304.742 334.011 305.118 334.611 305.711 334.898L327.562 345.479C328.699 346.03 330.017 345.202 330.017 343.938L330.017 339.549Z" fill="#323232"/>
</g>
<g filter="url(#filter13_di_3_1558)">
<path d="M249.428 300.182C249.428 299.524 249.052 298.924 248.462 298.637L226.61 288.013C225.473 287.46 224.153 288.288 224.153 289.553L224.153 293.986C224.153 294.644 224.529 295.245 225.121 295.531L246.973 306.113C248.109 306.663 249.428 305.835 249.428 304.572L249.428 300.182Z" fill="#323232"/>
</g>
<g filter="url(#filter14_di_3_1558)">
<path d="M141.916 112.045L282.579 181.048C285.425 182.444 286.861 185.681 286.048 188.745C282.962 200.383 275.821 230.065 272.823 265.696C272.369 271.095 139.431 206.051 124.152 193.711C108.306 180.912 120.389 137.793 133.834 114.371C135.454 111.55 138.995 110.612 141.916 112.045Z" fill="url(#paint9_linear_3_1558)"/>
</g>
<g filter="url(#filter15_di_3_1558)">
<path d="M110.249 132.244C123.423 110.017 124.771 101.965 116.36 100.654C105.204 106.743 72.3984 152.104 66.8218 172.784C65.7631 176.71 74.1267 175.38 83.2903 168.909C92.454 162.439 93.7806 160.029 110.249 132.244Z" fill="url(#paint10_linear_3_1558)"/>
</g>
<g filter="url(#filter16_f_3_1558)">
<path d="M96.7705 252.322L94.3438 251.088C95.1607 251.479 95.9697 251.89 96.7705 252.322L435.089 424.358C436.968 425.314 436.902 428.105 435.05 429.112C423.795 435.227 403.964 450.696 402.367 481.54C402.272 483.376 400.326 484.576 398.685 483.748L158.057 362.282C157.19 361.845 156.667 360.95 156.622 359.98C155.845 343.149 135.965 273.46 96.7705 252.322Z" fill="url(#paint11_linear_3_1558)" fill-opacity="0.12"/>
</g>
<g filter="url(#filter17_ddii_3_1558)">
<path d="M748.09 501.42C724.911 503.086 682.985 507.725 640.776 484.502C636.672 482.244 629.856 488.234 631.91 492.444C639.132 507.241 647.569 523.697 655.41 527.789C670.658 535.746 714.381 550.708 756.303 543.198C756.507 543.161 756.711 543.135 756.918 543.147C761.441 543.421 772.732 552.203 782.762 556.07C798.629 560.477 868.089 522.773 885.598 512.879C922.563 491.991 935.193 476.68 937.161 472.626C940.236 466.293 938.165 453.205 938.777 449.121C939.28 445.764 942.43 438.598 943.537 436.151C943.789 435.594 943.921 435.005 943.914 434.394C943.872 430.697 943.548 416.547 941.085 405.205C941.02 404.904 940.986 404.595 940.984 404.286C940.854 383.093 931.87 368.696 931.873 379.78C931.873 395.106 927.916 413.511 916.83 422.377C916.577 422.579 916.401 422.741 916.138 422.93C908.797 428.197 780.814 499.068 748.09 501.42Z" fill="#272727"/>
</g>
<mask id="mask1_3_1558" style="mask-type:alpha" maskUnits="userSpaceOnUse" x="629" y="375" width="315" height="182">
<path d="M748.09 501.42C724.03 503.149 679.771 508.082 635.963 481.731C632.901 479.889 627.92 484.238 629.482 487.451C637.193 503.313 646.672 523.229 655.41 527.789C670.667 535.751 714.431 550.726 756.376 543.185C756.532 543.157 756.685 543.137 756.843 543.143C761.315 543.323 772.676 552.182 782.762 556.07C798.629 560.477 868.089 522.773 885.598 512.879C922.563 491.991 936.809 475.505 938.777 471.451C941.852 465.118 938.165 452.47 938.777 448.386C939.288 444.978 942.527 438.155 943.586 435.988C943.806 435.54 943.921 435.053 943.916 434.553C943.881 431.112 943.583 416.627 941.062 405.098C941.012 404.868 940.986 404.632 940.985 404.397C940.885 383.143 931.87 368.677 931.873 379.78C931.873 395.147 927.894 413.61 916.74 422.449C916.546 422.602 916.442 422.703 916.245 422.852C910.152 427.446 780.987 499.056 748.09 501.42Z" fill="#211F1F"/>
</mask>
<g mask="url(#mask1_3_1558)">
<g filter="url(#filter18_ddii_3_1558)">
<path d="M748.09 501.42C724.909 503.086 682.979 507.726 640.768 484.497C636.666 482.24 629.852 488.228 631.906 492.435C639.128 507.234 647.568 523.697 655.41 527.789C670.658 535.746 714.381 550.708 756.303 543.198C756.508 543.161 756.711 543.135 756.918 543.147C761.441 543.421 772.732 552.203 782.762 556.07C798.629 560.477 868.089 522.773 885.598 512.879C922.563 491.991 934.458 477.121 936.427 473.067C939.501 466.734 937.431 452.617 938.043 448.533C938.533 445.261 942.011 438.745 943.374 436.284C943.73 435.642 943.922 434.931 943.912 434.197C943.86 430.218 943.506 416.354 941.085 405.205C941.02 404.904 940.986 404.595 940.984 404.287C940.854 383.093 931.87 368.696 931.873 379.78C931.873 395.106 927.916 413.511 916.83 422.377C916.577 422.579 916.401 422.741 916.139 422.93C908.799 428.196 780.815 499.068 748.09 501.42Z" fill="#272727"/>
</g>
<g filter="url(#filter19_d_3_1558)">
<path d="M930.308 388.845C930.357 388.922 930.407 389 930.457 389.081C931.323 390.467 932.411 392.457 933.299 394.867C935.076 399.692 936.012 406.08 932.915 412.718C932.031 414.613 930.331 416.672 928.422 417.857C926.541 419.025 924.798 419.184 923.305 418.099C922.265 417.344 920.879 416.752 919.501 416.286C918.096 415.81 916.576 415.423 915.19 415.12C914.3 414.925 913.455 414.763 912.718 414.632L930.308 388.845Z" stroke="white" stroke-opacity="0.9" stroke-width="3.34164"/>
</g>
<g filter="url(#filter20_d_3_1558)">
<path d="M671.383 492.797L753.354 494.032C753.355 494.034 753.355 494.036 753.356 494.038C753.583 494.695 753.872 495.648 754.11 496.81C754.589 499.146 754.847 502.25 754.049 505.46C753.26 508.634 751.423 511.98 747.584 514.854C743.717 517.748 737.735 520.224 728.575 521.453C723.135 522.183 715.608 522.156 707.875 520.689C700.136 519.221 692.311 516.334 686.17 511.439C682.852 508.794 678.773 503.565 675.448 498.842C673.815 496.522 672.397 494.373 671.383 492.797Z" stroke="white" stroke-opacity="0.9" stroke-width="3.34164"/>
</g>
</g>
</g>
<defs>
<filter id="filter0_i_3_1558" x="418.283" y="459.7" width="102.234" height="143.319" filterUnits="userSpaceOnUse" color-interpolation-filters="sRGB">
<feFlood flood-opacity="0" result="BackgroundImageFix"/>
<feBlend mode="normal" in="SourceGraphic" in2="BackgroundImageFix" result="shape"/>
<feColorMatrix in="SourceAlpha" type="matrix" values="0 0 0 0 0 0 0 0 0 0 0 0 0 0 0 0 0 0 127 0" result="hardAlpha"/>
<feMorphology radius="1.14793" operator="erode" in="SourceAlpha" result="effect1_innerShadow_3_1558"/>
<feOffset/>
<feGaussianBlur stdDeviation="0.573963"/>
<feComposite in2="hardAlpha" operator="arithmetic" k2="-1" k3="1"/>
<feColorMatrix type="matrix" values="0 0 0 0 0 0 0 0 0 0 0 0 0 0 0 0 0 0 0.25 0"/>
<feBlend mode="normal" in2="shape" result="effect1_innerShadow_3_1558"/>
</filter>
<filter id="filter1_di_3_1558" x="423.48" y="471.579" width="89.091" height="121.628" filterUnits="userSpaceOnUse" color-interpolation-filters="sRGB">
<feFlood flood-opacity="0" result="BackgroundImageFix"/>
<feColorMatrix in="SourceAlpha" type="matrix" values="0 0 0 0 0 0 0 0 0 0 0 0 0 0 0 0 0 0 127 0" result="hardAlpha"/>
<feOffset dy="0.45917"/>
<feGaussianBlur stdDeviation="0.344378"/>
<feColorMatrix type="matrix" values="0 0 0 0 1 0 0 0 0 1 0 0 0 0 1 0 0 0 0.41 0"/>
<feBlend mode="normal" in2="BackgroundImageFix" result="effect1_dropShadow_3_1558"/>
<feBlend mode="normal" in="SourceGraphic" in2="effect1_dropShadow_3_1558" result="shape"/>
<feColorMatrix in="SourceAlpha" type="matrix" values="0 0 0 0 0 0 0 0 0 0 0 0 0 0 0 0 0 0 127 0" result="hardAlpha"/>
<feOffset dx="-3.44378" dy="2.29585"/>
<feGaussianBlur stdDeviation="1.72189"/>
<feComposite in2="hardAlpha" operator="arithmetic" k2="-1" k3="1"/>
<feColorMatrix type="matrix" values="0 0 0 0 0 0 0 0 0 0 0 0 0 0 0 0 0 0 0.25 0"/>
<feBlend mode="normal" in2="shape" result="effect2_innerShadow_3_1558"/>
</filter>
<filter id="filter2_i_3_1558" x="424.317" y="460.52" width="91.2544" height="141.674" filterUnits="userSpaceOnUse" color-interpolation-filters="sRGB">
<feFlood flood-opacity="0" result="BackgroundImageFix"/>
<feBlend mode="normal" in="SourceGraphic" in2="BackgroundImageFix" result="shape"/>
<feColorMatrix in="SourceAlpha" type="matrix" values="0 0 0 0 0 0 0 0 0 0 0 0 0 0 0 0 0 0 127 0" result="hardAlpha"/>
<feMorphology radius="1.52962" operator="erode" in="SourceAlpha" result="effect1_innerShadow_3_1558"/>
<feOffset/>
<feGaussianBlur stdDeviation="0.764811"/>
<feComposite in2="hardAlpha" operator="arithmetic" k2="-1" k3="1"/>
<feColorMatrix type="matrix" values="0 0 0 0 0 0 0 0 0 0 0 0 0 0 0 0 0 0 0.25 0"/>
<feBlend mode="normal" in2="shape" result="effect1_innerShadow_3_1558"/>
</filter>
<filter id="filter3_di_3_1558" x="434.178" y="478.74" width="70.1611" height="106.311" filterUnits="userSpaceOnUse" color-interpolation-filters="sRGB">
<feFlood flood-opacity="0" result="BackgroundImageFix"/>
<feColorMatrix in="SourceAlpha" type="matrix" values="0 0 0 0 0 0 0 0 0 0 0 0 0 0 0 0 0 0 127 0" result="hardAlpha"/>
<feOffset dy="0.521665"/>
<feGaussianBlur stdDeviation="0.326041"/>
<feColorMatrix type="matrix" values="0 0 0 0 1 0 0 0 0 1 0 0 0 0 1 0 0 0 0.59 0"/>
<feBlend mode="normal" in2="BackgroundImageFix" result="effect1_dropShadow_3_1558"/>
<feBlend mode="normal" in="SourceGraphic" in2="effect1_dropShadow_3_1558" result="shape"/>
<feColorMatrix in="SourceAlpha" type="matrix" values="0 0 0 0 0 0 0 0 0 0 0 0 0 0 0 0 0 0 127 0" result="hardAlpha"/>
<feOffset dx="-1.95624" dy="1.30416"/>
<feGaussianBlur stdDeviation="0.978122"/>
<feComposite in2="hardAlpha" operator="arithmetic" k2="-1" k3="1"/>
<feColorMatrix type="matrix" values="0 0 0 0 0 0 0 0 0 0 0 0 0 0 0 0 0 0 0.25 0"/>
<feBlend mode="normal" in2="shape" result="effect2_innerShadow_3_1558"/>
</filter>
<filter id="filter4_i_3_1558" x="68.6592" y="306.596" width="76.5876" height="107.366" filterUnits="userSpaceOnUse" color-interpolation-filters="sRGB">
<feFlood flood-opacity="0" result="BackgroundImageFix"/>
<feBlend mode="normal" in="SourceGraphic" in2="BackgroundImageFix" result="shape"/>
<feColorMatrix in="SourceAlpha" type="matrix" values="0 0 0 0 0 0 0 0 0 0 0 0 0 0 0 0 0 0 127 0" result="hardAlpha"/>
<feMorphology radius="1.14793" operator="erode" in="SourceAlpha" result="effect1_innerShadow_3_1558"/>
<feOffset/>
<feGaussianBlur stdDeviation="0.573963"/>
<feComposite in2="hardAlpha" operator="arithmetic" k2="-1" k3="1"/>
<feColorMatrix type="matrix" values="0 0 0 0 0 0 0 0 0 0 0 0 0 0 0 0 0 0 0.25 0"/>
<feBlend mode="normal" in2="shape" result="effect1_innerShadow_3_1558"/>
</filter>
<filter id="filter5_di_3_1558" x="71.6646" y="315.438" width="67.7705" height="91.7496" filterUnits="userSpaceOnUse" color-interpolation-filters="sRGB">
<feFlood flood-opacity="0" result="BackgroundImageFix"/>
<feColorMatrix in="SourceAlpha" type="matrix" values="0 0 0 0 0 0 0 0 0 0 0 0 0 0 0 0 0 0 127 0" result="hardAlpha"/>
<feOffset dy="0.45917"/>
<feGaussianBlur stdDeviation="0.344378"/>
<feColorMatrix type="matrix" values="0 0 0 0 1 0 0 0 0 1 0 0 0 0 1 0 0 0 0.41 0"/>
<feBlend mode="normal" in2="BackgroundImageFix" result="effect1_dropShadow_3_1558"/>
<feBlend mode="normal" in="SourceGraphic" in2="effect1_dropShadow_3_1558" result="shape"/>
<feColorMatrix in="SourceAlpha" type="matrix" values="0 0 0 0 0 0 0 0 0 0 0 0 0 0 0 0 0 0 127 0" result="hardAlpha"/>
<feOffset dx="-3.44378" dy="2.29585"/>
<feGaussianBlur stdDeviation="1.72189"/>
<feComposite in2="hardAlpha" operator="arithmetic" k2="-1" k3="1"/>
<feColorMatrix type="matrix" values="0 0 0 0 0 0 0 0 0 0 0 0 0 0 0 0 0 0 0.25 0"/>
<feBlend mode="normal" in2="shape" result="effect2_innerShadow_3_1558"/>
</filter>
<filter id="filter6_i_3_1558" x="71.5215" y="308.751" width="65.9619" height="107.64" filterUnits="userSpaceOnUse" color-interpolation-filters="sRGB">
<feFlood flood-opacity="0" result="BackgroundImageFix"/>
<feBlend mode="normal" in="SourceGraphic" in2="BackgroundImageFix" result="shape"/>
<feColorMatrix in="SourceAlpha" type="matrix" values="0 0 0 0 0 0 0 0 0 0 0 0 0 0 0 0 0 0 127 0" result="hardAlpha"/>
<feMorphology radius="1.52962" operator="erode" in="SourceAlpha" result="effect1_innerShadow_3_1558"/>
<feOffset/>
<feGaussianBlur stdDeviation="0.764811"/>
<feComposite in2="hardAlpha" operator="arithmetic" k2="-1" k3="1"/>
<feColorMatrix type="matrix" values="0 0 0 0 0 0 0 0 0 0 0 0 0 0 0 0 0 0 0.25 0"/>
<feBlend mode="normal" in2="shape" result="effect1_innerShadow_3_1558"/>
</filter>
<filter id="filter7_di_3_1558" x="78.1617" y="322.593" width="51.4377" height="81.1125" filterUnits="userSpaceOnUse" color-interpolation-filters="sRGB">
<feFlood flood-opacity="0" result="BackgroundImageFix"/>
<feColorMatrix in="SourceAlpha" type="matrix" values="0 0 0 0 0 0 0 0 0 0 0 0 0 0 0 0 0 0 127 0" result="hardAlpha"/>
<feOffset dy="0.521665"/>
<feGaussianBlur stdDeviation="0.326041"/>
<feColorMatrix type="matrix" values="0 0 0 0 1 0 0 0 0 1 0 0 0 0 1 0 0 0 0.59 0"/>
<feBlend mode="normal" in2="BackgroundImageFix" result="effect1_dropShadow_3_1558"/>
<feBlend mode="normal" in="SourceGraphic" in2="effect1_dropShadow_3_1558" result="shape"/>
<feColorMatrix in="SourceAlpha" type="matrix" values="0 0 0 0 0 0 0 0 0 0 0 0 0 0 0 0 0 0 127 0" result="hardAlpha"/>
<feOffset dx="-1.95624" dy="1.30416"/>
<feGaussianBlur stdDeviation="0.978122"/>
<feComposite in2="hardAlpha" operator="arithmetic" k2="-1" k3="1"/>
<feColorMatrix type="matrix" values="0 0 0 0 0 0 0 0 0 0 0 0 0 0 0 0 0 0 0.25 0"/>
<feBlend mode="normal" in2="shape" result="effect2_innerShadow_3_1558"/>
</filter>
<filter id="filter8_ii_3_1558" x="41.9755" y="19.6665" width="912.662" height="628.789" filterUnits="userSpaceOnUse" color-interpolation-filters="sRGB">
<feFlood flood-opacity="0" result="BackgroundImageFix"/>
<feBlend mode="normal" in="SourceGraphic" in2="BackgroundImageFix" result="shape"/>
<feColorMatrix in="SourceAlpha" type="matrix" values="0 0 0 0 0 0 0 0 0 0 0 0 0 0 0 0 0 0 127 0" result="hardAlpha"/>
<feOffset dx="9.17774" dy="-12.237"/>
<feGaussianBlur stdDeviation="36.7109"/>
<feComposite in2="hardAlpha" operator="arithmetic" k2="-1" k3="1"/>
<feColorMatrix type="matrix" values="0 0 0 0 0 0 0 0 0 0 0 0 0 0 0 0 0 0 0.07 0"/>
<feBlend mode="normal" in2="shape" result="effect1_innerShadow_3_1558"/>
<feColorMatrix in="SourceAlpha" type="matrix" values="0 0 0 0 0 0 0 0 0 0 0 0 0 0 0 0 0 0 127 0" result="hardAlpha"/>
<feOffset dy="-1.52962"/>
<feGaussianBlur stdDeviation="3.05925"/>
<feComposite in2="hardAlpha" operator="arithmetic" k2="-1" k3="1"/>
<feColorMatrix type="matrix" values="0 0 0 0 0 0 0 0 0 0 0 0 0 0 0 0 0 0 0.09 0"/>
<feBlend mode="normal" in2="effect1_innerShadow_3_1558" result="effect2_innerShadow_3_1558"/>
</filter>
<filter id="filter9_ddi_3_1558" x="482.454" y="171.483" width="330.874" height="232.691" filterUnits="userSpaceOnUse" color-interpolation-filters="sRGB">
<feFlood flood-opacity="0" result="BackgroundImageFix"/>
<feColorMatrix in="SourceAlpha" type="matrix" values="0 0 0 0 0 0 0 0 0 0 0 0 0 0 0 0 0 0 127 0" result="hardAlpha"/>
<feOffset dx="-1.7131" dy="0.856552"/>
<feGaussianBlur stdDeviation="0.856552"/>
<feColorMatrix type="matrix" values="0 0 0 0 1 0 0 0 0 1 0 0 0 0 1 0 0 0 0.28 0"/>
<feBlend mode="normal" in2="BackgroundImageFix" result="effect1_dropShadow_3_1558"/>
<feColorMatrix in="SourceAlpha" type="matrix" values="0 0 0 0 0 0 0 0 0 0 0 0 0 0 0 0 0 0 127 0" result="hardAlpha"/>
<feOffset dy="-0.856552"/>
<feGaussianBlur stdDeviation="0.856552"/>
<feColorMatrix type="matrix" values="0 0 0 0 1 0 0 0 0 1 0 0 0 0 1 0 0 0 0.56 0"/>
<feBlend mode="normal" in2="effect1_dropShadow_3_1558" result="effect2_dropShadow_3_1558"/>
<feBlend mode="normal" in="SourceGraphic" in2="effect2_dropShadow_3_1558" result="shape"/>
<feColorMatrix in="SourceAlpha" type="matrix" values="0 0 0 0 0 0 0 0 0 0 0 0 0 0 0 0 0 0 127 0" result="hardAlpha"/>
<feOffset dx="-0.856552" dy="2.56966"/>
<feGaussianBlur stdDeviation="1.28483"/>
<feComposite in2="hardAlpha" operator="arithmetic" k2="-1" k3="1"/>
<feColorMatrix type="matrix" values="0 0 0 0 0 0 0 0 0 0 0 0 0 0 0 0 0 0 0.75 0"/>
<feBlend mode="normal" in2="shape" result="effect3_innerShadow_3_1558"/>
</filter>
<filter id="filter10_di_3_1558" x="293.836" y="197.914" width="210.445" height="193.605" filterUnits="userSpaceOnUse" color-interpolation-filters="sRGB">
<feFlood flood-opacity="0" result="BackgroundImageFix"/>
<feColorMatrix in="SourceAlpha" type="matrix" values="0 0 0 0 0 0 0 0 0 0 0 0 0 0 0 0 0 0 127 0" result="hardAlpha"/>
<feOffset dy="0.885786"/>
<feGaussianBlur stdDeviation="0.442893"/>
<feColorMatrix type="matrix" values="0 0 0 0 0.925374 0 0 0 0 0.925374 0 0 0 0 0.925374 0 0 0 0.37 0"/>
<feBlend mode="normal" in2="BackgroundImageFix" result="effect1_dropShadow_3_1558"/>
<feBlend mode="normal" in="SourceGraphic" in2="effect1_dropShadow_3_1558" result="shape"/>
<feColorMatrix in="SourceAlpha" type="matrix" values="0 0 0 0 0 0 0 0 0 0 0 0 0 0 0 0 0 0 127 0" result="hardAlpha"/>
<feOffset dx="-5.90554" dy="4.27472"/>
<feGaussianBlur stdDeviation="2.95277"/>
<feComposite in2="hardAlpha" operator="arithmetic" k2="-1" k3="1"/>
<feColorMatrix type="matrix" values="0 0 0 0 0 0 0 0 0 0 0 0 0 0 0 0 0 0 0.63 0"/>
<feBlend mode="normal" in2="shape" result="effect2_innerShadow_3_1558"/>
</filter>
<filter id="filter11_f_3_1558" x="508.42" y="374.36" width="313.935" height="140.047" filterUnits="userSpaceOnUse" color-interpolation-filters="sRGB">
<feFlood flood-opacity="0" result="BackgroundImageFix"/>
<feBlend mode="normal" in="SourceGraphic" in2="BackgroundImageFix" result="shape"/>
<feGaussianBlur stdDeviation="11.9917" result="effect1_foregroundBlur_3_1558"/>
</filter>
<filter id="filter12_di_3_1558" x="304.317" y="326.355" width="26.1248" height="21.4214" filterUnits="userSpaceOnUse" color-interpolation-filters="sRGB">
<feFlood flood-opacity="0" result="BackgroundImageFix"/>
<feColorMatrix in="SourceAlpha" type="matrix" values="0 0 0 0 0 0 0 0 0 0 0 0 0 0 0 0 0 0 127 0" result="hardAlpha"/>
<feOffset dy="-0.424831"/>
<feGaussianBlur stdDeviation="0.212415"/>
<feColorMatrix type="matrix" values="0 0 0 0 0.78755 0 0 0 0 0.78755 0 0 0 0 0.78755 0 0 0 0.19 0"/>
<feBlend mode="normal" in2="BackgroundImageFix" result="effect1_dropShadow_3_1558"/>
<feBlend mode="normal" in="SourceGraphic" in2="effect1_dropShadow_3_1558" result="shape"/>
<feColorMatrix in="SourceAlpha" type="matrix" values="0 0 0 0 0 0 0 0 0 0 0 0 0 0 0 0 0 0 127 0" result="hardAlpha"/>
<feOffset dy="2.12415"/>
<feGaussianBlur stdDeviation="1.06208"/>
<feComposite in2="hardAlpha" operator="arithmetic" k2="-1" k3="1"/>
<feColorMatrix type="matrix" values="0 0 0 0 0 0 0 0 0 0 0 0 0 0 0 0 0 0 0.74 0"/>
<feBlend mode="normal" in2="shape" result="effect2_innerShadow_3_1558"/>
</filter>
<filter id="filter13_di_3_1558" x="223.728" y="286.989" width="26.1248" height="21.4214" filterUnits="userSpaceOnUse" color-interpolation-filters="sRGB">
<feFlood flood-opacity="0" result="BackgroundImageFix"/>
<feColorMatrix in="SourceAlpha" type="matrix" values="0 0 0 0 0 0 0 0 0 0 0 0 0 0 0 0 0 0 127 0" result="hardAlpha"/>
<feOffset dy="-0.424831"/>
<feGaussianBlur stdDeviation="0.212415"/>
<feColorMatrix type="matrix" values="0 0 0 0 0.78755 0 0 0 0 0.78755 0 0 0 0 0.78755 0 0 0 0.19 0"/>
<feBlend mode="normal" in2="BackgroundImageFix" result="effect1_dropShadow_3_1558"/>
<feBlend mode="normal" in="SourceGraphic" in2="effect1_dropShadow_3_1558" result="shape"/>
<feColorMatrix in="SourceAlpha" type="matrix" values="0 0 0 0 0 0 0 0 0 0 0 0 0 0 0 0 0 0 127 0" result="hardAlpha"/>
<feOffset dy="2.12415"/>
<feGaussianBlur stdDeviation="1.06208"/>
<feComposite in2="hardAlpha" operator="arithmetic" k2="-1" k3="1"/>
<feColorMatrix type="matrix" values="0 0 0 0 0 0 0 0 0 0 0 0 0 0 0 0 0 0 0.74 0"/>
<feBlend mode="normal" in2="shape" result="effect2_innerShadow_3_1558"/>
</filter>
<filter id="filter14_di_3_1558" x="110.725" y="111.381" width="176.435" height="158.907" filterUnits="userSpaceOnUse" color-interpolation-filters="sRGB">
<feFlood flood-opacity="0" result="BackgroundImageFix"/>
<feColorMatrix in="SourceAlpha" type="matrix" values="0 0 0 0 0 0 0 0 0 0 0 0 0 0 0 0 0 0 127 0" result="hardAlpha"/>
<feOffset dy="0.885786"/>
<feGaussianBlur stdDeviation="0.442893"/>
<feColorMatrix type="matrix" values="0 0 0 0 0.925374 0 0 0 0 0.925374 0 0 0 0 0.925374 0 0 0 0.37 0"/>
<feBlend mode="normal" in2="BackgroundImageFix" result="effect1_dropShadow_3_1558"/>
<feBlend mode="normal" in="SourceGraphic" in2="effect1_dropShadow_3_1558" result="shape"/>
<feColorMatrix in="SourceAlpha" type="matrix" values="0 0 0 0 0 0 0 0 0 0 0 0 0 0 0 0 0 0 127 0" result="hardAlpha"/>
<feOffset dx="-5.90554" dy="4.27472"/>
<feGaussianBlur stdDeviation="2.95277"/>
<feComposite in2="hardAlpha" operator="arithmetic" k2="-1" k3="1"/>
<feColorMatrix type="matrix" values="0 0 0 0 0 0 0 0 0 0 0 0 0 0 0 0 0 0 0.63 0"/>
<feBlend mode="normal" in2="shape" result="effect2_innerShadow_3_1558"/>
</filter>
<filter id="filter15_di_3_1558" x="62.4139" y="100.654" width="60.344" height="78.6528" filterUnits="userSpaceOnUse" color-interpolation-filters="sRGB">
<feFlood flood-opacity="0" result="BackgroundImageFix"/>
<feColorMatrix in="SourceAlpha" type="matrix" values="0 0 0 0 0 0 0 0 0 0 0 0 0 0 0 0 0 0 127 0" result="hardAlpha"/>
<feOffset dy="1.1161"/>
<feGaussianBlur stdDeviation="0.558048"/>
<feColorMatrix type="matrix" values="0 0 0 0 0.925374 0 0 0 0 0.925374 0 0 0 0 0.925374 0 0 0 0.37 0"/>
<feBlend mode="normal" in2="BackgroundImageFix" result="effect1_dropShadow_3_1558"/>
<feBlend mode="normal" in="SourceGraphic" in2="effect1_dropShadow_3_1558" result="shape"/>
<feColorMatrix in="SourceAlpha" type="matrix" values="0 0 0 0 0 0 0 0 0 0 0 0 0 0 0 0 0 0 127 0" result="hardAlpha"/>
<feOffset dx="-4.31704" dy="5.3963"/>
<feGaussianBlur stdDeviation="2.15852"/>
<feComposite in2="hardAlpha" operator="arithmetic" k2="-1" k3="1"/>
<feColorMatrix type="matrix" values="0 0 0 0 0 0 0 0 0 0 0 0 0 0 0 0 0 0 0.8 0"/>
<feBlend mode="normal" in2="shape" result="effect2_innerShadow_3_1558"/>
</filter>
<filter id="filter16_f_3_1558" x="90.6429" y="247.387" width="349.527" height="240.328" filterUnits="userSpaceOnUse" color-interpolation-filters="sRGB">
<feFlood flood-opacity="0" result="BackgroundImageFix"/>
<feBlend mode="normal" in="SourceGraphic" in2="BackgroundImageFix" result="shape"/>
<feGaussianBlur stdDeviation="1.85043" result="effect1_foregroundBlur_3_1558"/>
</filter>
<filter id="filter17_ddii_3_1558" x="630.135" y="373.848" width="315.177" height="192.213" filterUnits="userSpaceOnUse" color-interpolation-filters="sRGB">
<feFlood flood-opacity="0" result="BackgroundImageFix"/>
<feColorMatrix in="SourceAlpha" type="matrix" values="0 0 0 0 0 0 0 0 0 0 0 0 0 0 0 0 0 0 127 0" result="hardAlpha"/>
<feOffset dy="1.04822"/>
<feGaussianBlur stdDeviation="0.698811"/>
<feColorMatrix type="matrix" values="0 0 0 0 0 0 0 0 0 0 0 0 0 0 0 0 0 0 0.57 0"/>
<feBlend mode="normal" in2="BackgroundImageFix" result="effect1_dropShadow_3_1558"/>
<feColorMatrix in="SourceAlpha" type="matrix" values="0 0 0 0 0 0 0 0 0 0 0 0 0 0 0 0 0 0 127 0" result="hardAlpha"/>
<feOffset dy="-0.698811"/>
<feGaussianBlur stdDeviation="0.698811"/>
<feColorMatrix type="matrix" values="0 0 0 0 0 0 0 0 0 0 0 0 0 0 0 0 0 0 1 0"/>
<feBlend mode="normal" in2="effect1_dropShadow_3_1558" result="effect2_dropShadow_3_1558"/>
<feBlend mode="normal" in="SourceGraphic" in2="effect2_dropShadow_3_1558" result="shape"/>
<feColorMatrix in="SourceAlpha" type="matrix" values="0 0 0 0 0 0 0 0 0 0 0 0 0 0 0 0 0 0 127 0" result="hardAlpha"/>
<feOffset dy="9.63393"/>
<feGaussianBlur stdDeviation="9.81802"/>
<feComposite in2="hardAlpha" operator="arithmetic" k2="-1" k3="1"/>
<feColorMatrix type="matrix" values="0 0 0 0 0 0 0 0 0 0 0 0 0 0 0 0 0 0 1 0"/>
<feBlend mode="normal" in2="shape" result="effect3_innerShadow_3_1558"/>
<feColorMatrix in="SourceAlpha" type="matrix" values="0 0 0 0 0 0 0 0 0 0 0 0 0 0 0 0 0 0 127 0" result="hardAlpha"/>
<feOffset dy="-1.04982"/>
<feGaussianBlur stdDeviation="1.04982"/>
<feComposite in2="hardAlpha" operator="arithmetic" k2="-1" k3="1"/>
<feColorMatrix type="matrix" values="0 0 0 0 0 0 0 0 0 0 0 0 0 0 0 0 0 0 1 0"/>
<feBlend mode="normal" in2="effect3_innerShadow_3_1558" result="effect4_innerShadow_3_1558"/>
</filter>
<filter id="filter18_ddii_3_1558" x="630.131" y="373.848" width="315.179" height="192.213" filterUnits="userSpaceOnUse" color-interpolation-filters="sRGB">
<feFlood flood-opacity="0" result="BackgroundImageFix"/>
<feColorMatrix in="SourceAlpha" type="matrix" values="0 0 0 0 0 0 0 0 0 0 0 0 0 0 0 0 0 0 127 0" result="hardAlpha"/>
<feOffset dy="1.04822"/>
<feGaussianBlur stdDeviation="0.698811"/>
<feColorMatrix type="matrix" values="0 0 0 0 0 0 0 0 0 0 0 0 0 0 0 0 0 0 0.57 0"/>
<feBlend mode="normal" in2="BackgroundImageFix" result="effect1_dropShadow_3_1558"/>
<feColorMatrix in="SourceAlpha" type="matrix" values="0 0 0 0 0 0 0 0 0 0 0 0 0 0 0 0 0 0 127 0" result="hardAlpha"/>
<feOffset dy="-0.698811"/>
<feGaussianBlur stdDeviation="0.698811"/>
<feColorMatrix type="matrix" values="0 0 0 0 0 0 0 0 0 0 0 0 0 0 0 0 0 0 1 0"/>
<feBlend mode="normal" in2="effect1_dropShadow_3_1558" result="effect2_dropShadow_3_1558"/>
<feBlend mode="normal" in="SourceGraphic" in2="effect2_dropShadow_3_1558" result="shape"/>
<feColorMatrix in="SourceAlpha" type="matrix" values="0 0 0 0 0 0 0 0 0 0 0 0 0 0 0 0 0 0 127 0" result="hardAlpha"/>
<feOffset dy="9.63393"/>
<feGaussianBlur stdDeviation="9.81802"/>
<feComposite in2="hardAlpha" operator="arithmetic" k2="-1" k3="1"/>
<feColorMatrix type="matrix" values="0 0 0 0 0 0 0 0 0 0 0 0 0 0 0 0 0 0 1 0"/>
<feBlend mode="normal" in2="shape" result="effect3_innerShadow_3_1558"/>
<feColorMatrix in="SourceAlpha" type="matrix" values="0 0 0 0 0 0 0 0 0 0 0 0 0 0 0 0 0 0 127 0" result="hardAlpha"/>
<feOffset dy="-1.04982"/>
<feGaussianBlur stdDeviation="1.04982"/>
<feComposite in2="hardAlpha" operator="arithmetic" k2="-1" k3="1"/>
<feColorMatrix type="matrix" values="0 0 0 0 0 0 0 0 0 0 0 0 0 0 0 0 0 0 1 0"/>
<feBlend mode="normal" in2="effect3_innerShadow_3_1558" result="effect4_innerShadow_3_1558"/>
</filter>
<filter id="filter19_d_3_1558" x="909.578" y="385.914" width="29.5307" height="37.3544" filterUnits="userSpaceOnUse" color-interpolation-filters="sRGB">
<feFlood flood-opacity="0" result="BackgroundImageFix"/>
<feColorMatrix in="SourceAlpha" type="matrix" values="0 0 0 0 0 0 0 0 0 0 0 0 0 0 0 0 0 0 127 0" result="hardAlpha"/>
<feOffset dx="1.11388" dy="1.38365"/>
<feGaussianBlur stdDeviation="0.691823"/>
<feColorMatrix type="matrix" values="0 0 0 0 1 0 0 0 0 1 0 0 0 0 1 0 0 0 0.24 0"/>
<feBlend mode="normal" in2="BackgroundImageFix" result="effect1_dropShadow_3_1558"/>
<feBlend mode="normal" in="SourceGraphic" in2="effect1_dropShadow_3_1558" result="shape"/>
</filter>
<filter id="filter20_d_3_1558" x="668.058" y="491.08" width="90.6716" height="35.2797" filterUnits="userSpaceOnUse" color-interpolation-filters="sRGB">
<feFlood flood-opacity="0" result="BackgroundImageFix"/>
<feColorMatrix in="SourceAlpha" type="matrix" values="0 0 0 0 0 0 0 0 0 0 0 0 0 0 0 0 0 0 127 0" result="hardAlpha"/>
<feOffset dx="1.11388" dy="1.38365"/>
<feGaussianBlur stdDeviation="0.691823"/>
<feColorMatrix type="matrix" values="0 0 0 0 1 0 0 0 0 1 0 0 0 0 1 0 0 0 0.24 0"/>
<feBlend mode="normal" in2="BackgroundImageFix" result="effect1_dropShadow_3_1558"/>
<feBlend mode="normal" in="SourceGraphic" in2="effect1_dropShadow_3_1558" result="shape"/>
</filter>
<linearGradient id="paint0_linear_3_1558" x1="105.297" y1="115.669" x2="110.539" y2="37.6906" gradientUnits="userSpaceOnUse">
<stop stop-color="#3F3F3F"/>
<stop offset="1" stop-color="#5C5C5C"/>
</linearGradient>
<linearGradient id="paint1_linear_3_1558" x1="98.6916" y1="111.542" x2="103.891" y2="36.3653" gradientUnits="userSpaceOnUse">
<stop stop-color="#AAAAAA"/>
<stop offset="1" stop-color="#C2C2C2"/>
</linearGradient>
<linearGradient id="paint2_linear_3_1558" x1="78.882" y1="86.6525" x2="82.809" y2="28.2355" gradientUnits="userSpaceOnUse">
<stop stop-color="#3F3F3F"/>
<stop offset="1" stop-color="#5C5C5C"/>
</linearGradient>
<linearGradient id="paint3_linear_3_1558" x1="73.9338" y1="83.5601" x2="77.8289" y2="27.2426" gradientUnits="userSpaceOnUse">
<stop stop-color="#AAAAAA"/>
<stop offset="1" stop-color="#C2C2C2"/>
</linearGradient>
<linearGradient id="paint4_linear_3_1558" x1="382.064" y1="481.649" x2="598.089" y2="45.5747" gradientUnits="userSpaceOnUse">
<stop stop-color="#CECBCB"/>
<stop offset="1" stop-color="white"/>
</linearGradient>
<linearGradient id="paint5_linear_3_1558" x1="406.652" y1="587.214" x2="69.5309" y2="20.2638" gradientUnits="userSpaceOnUse">
<stop stop-color="#E1E1E1"/>
<stop offset="1" stop-color="white"/>
</linearGradient>
<linearGradient id="paint6_linear_3_1558" x1="774.243" y1="115.917" x2="553.509" y2="301.888" gradientUnits="userSpaceOnUse">
<stop stop-color="#E8EAE9"/>
<stop offset="0.498386" stop-color="#707072"/>
<stop offset="1" stop-color="#2F3032"/>
</linearGradient>
<linearGradient id="paint7_linear_3_1558" x1="166.619" y1="770.679" x2="192.295" y2="223.158" gradientUnits="userSpaceOnUse">
<stop stop-color="#E8EAE9"/>
<stop offset="0.498386" stop-color="#707072"/>
<stop offset="1" stop-color="#2F3032"/>
</linearGradient>
<linearGradient id="paint8_linear_3_1558" x1="658.561" y1="498.285" x2="677.449" y2="436.99" gradientUnits="userSpaceOnUse">
<stop stop-color="#ECEAEA"/>
<stop offset="1" stop-color="white" stop-opacity="0"/>
</linearGradient>
<linearGradient id="paint9_linear_3_1558" x1="15.1632" y1="558.258" x2="35.6308" y2="131.497" gradientUnits="userSpaceOnUse">
<stop stop-color="#E8EAE9"/>
<stop offset="0.498386" stop-color="#707072"/>
<stop offset="1" stop-color="#2F3032"/>
</linearGradient>
<linearGradient id="paint10_linear_3_1558" x1="121.381" y1="280.664" x2="36.9069" y2="216.767" gradientUnits="userSpaceOnUse">
<stop stop-color="#E8EAE9"/>
<stop offset="0.498386" stop-color="#707072"/>
<stop offset="1" stop-color="#2F3032"/>
</linearGradient>
<linearGradient id="paint11_linear_3_1558" x1="217.852" y1="459.421" x2="283.65" y2="330.561" gradientUnits="userSpaceOnUse">
<stop stop-color="#040404"/>
<stop offset="1" stop-color="#3C3C3C" stop-opacity="0"/>
</linearGradient>
</defs>
</svg>
